<svg xmlns="http://www.w3.org/2000/svg" width="115" height="71" viewBox="0 0 115 71"><defs><style>.a{fill:#f99406}</style></defs><path class="a" d="M45 41.85l10.1 5.78.73.42.81-.23a10.49 10.49 0 0 1 2.86-.41A10.8 10.8 0 1 1 48.88 58.2a10.92 10.92 0 0 1 .61-3.58l.24-.7-.27-.69L45 41.85m-4-4.56L47.6 54a12.9 12.9 0 0 0-.72 4.24A12.63 12.63 0 1 0 59.5 45.41a12.45 12.45 0 0 0-3.41.49L41 37.29z"/><path class="a" d="M45 41.85l10.1 5.78.73.42.81-.23a10.49 10.49 0 0 1 2.86-.41A10.8 10.8 0 1 1 48.88 58.2a10.92 10.92 0 0 1 .61-3.58l.24-.7-.27-.69L45 41.85m-4-4.56L47.6 54a12.9 12.9 0 0 0-.72 4.24A12.63 12.63 0 1 0 59.5 45.41a12.45 12.45 0 0 0-3.41.49L41 37.29z"/><path d="M55.19 12.78h1.53V0h-1.53zm47.19 43.88v1.56H115v-1.56zM0 58.22h12.63v-1.56H0zm12.64-44.33l8.95 9.06 1.08-1.1-8.95-9.06zm79.69 8l1.08 1.1 8.95-9.06-1.08-1.1z" fill-rule="evenodd" fill="#f99406"/></svg>