<svg xmlns="http://www.w3.org/2000/svg" width="68" height="61" viewBox="0 0 68 61"><defs><style>.a{fill:#f99406}</style></defs><path class="a" d="M66 14.31V59H2V14.31h64m2-2H0V61h68V12.31z"/><path class="a" d="M66 14.31v20.35H50.75v4.69h-6.69v-4.69h-19.9v4.69h-6.69v-4.69H2V14.31h64m2-2H0v24.35h15.47v4.69h10.69v-4.69h15.9v4.69h10.69v-4.69H68V12.31z"/><path class="a" d="M50.75 34.84v4.5h-6.69v-4.5h6.69m-26.59 0v4.5h-6.69v-4.5h6.69m28.59-2H42.06v8.5h10.69v-8.5zm-26.59 0H15.47v8.5h10.69v-8.5zM47.13 2v9.5H20.88V2h26.25m2-2H18.88v13.5h30.25V0z"/></svg>