<svg xmlns="http://www.w3.org/2000/svg"><defs><style>.a{fill:#f99406}</style><style>.a{fill:#f99406}</style><style>.a{fill:#f99406}</style></defs><symbol id="i-asset-1"><path class="a" d="M45 41.85l10.1 5.78.73.42.81-.23a10.49 10.49 0 0 1 2.86-.41A10.8 10.8 0 1 1 48.88 58.2a10.92 10.92 0 0 1 .61-3.58l.24-.7-.27-.69L45 41.85m-4-4.56L47.6 54a12.9 12.9 0 0 0-.72 4.24A12.63 12.63 0 1 0 59.5 45.41a12.45 12.45 0 0 0-3.41.49L41 37.29z"/><path class="a" d="M45 41.85l10.1 5.78.73.42.81-.23a10.49 10.49 0 0 1 2.86-.41A10.8 10.8 0 1 1 48.88 58.2a10.92 10.92 0 0 1 .61-3.58l.24-.7-.27-.69L45 41.85m-4-4.56L47.6 54a12.9 12.9 0 0 0-.72 4.24A12.63 12.63 0 1 0 59.5 45.41a12.45 12.45 0 0 0-3.41.49L41 37.29z"/><path d="M55.19 12.78h1.53V0h-1.53zm47.19 43.88v1.56H115v-1.56zM0 58.22h12.63v-1.56H0zm12.64-44.33l8.95 9.06 1.08-1.1-8.95-9.06zm79.69 8l1.08 1.1 8.95-9.06-1.08-1.1z" fill-rule="evenodd" fill="#f99406"/></symbol><symbol id="i-asset-2"><path class="a" d="M66 14.31V59H2V14.31h64m2-2H0V61h68V12.31z"/><path class="a" d="M66 14.31v20.35H50.75v4.69h-6.69v-4.69h-19.9v4.69h-6.69v-4.69H2V14.31h64m2-2H0v24.35h15.47v4.69h10.69v-4.69h15.9v4.69h10.69v-4.69H68V12.31z"/><path class="a" d="M50.75 34.84v4.5h-6.69v-4.5h6.69m-26.59 0v4.5h-6.69v-4.5h6.69m28.59-2H42.06v8.5h10.69v-8.5zm-26.59 0H15.47v8.5h10.69v-8.5zM47.13 2v9.5H20.88V2h26.25m2-2H18.88v13.5h30.25V0z"/></symbol><symbol id="i-asset-3"><path class="a" d="M43.27 2a20.09 20.09 0 0 1 .69 40.17l-1.9.06v1.91a20 20 0 1 1-20.7-20.37l1.9-.06V21.8A20.13 20.13 0 0 1 43.27 2m0-2a22 22 0 0 0-22 21.77 22.09 22.09 0 1 0 22.76 22.4A22.09 22.09 0 0 0 43.27 0z"/><path class="a" d="M43.27 2a20.09 20.09 0 0 1 .69 40.17l-1.9.06v1.91a20 20 0 1 1-20.7-20.37l1.9-.06V21.8A20.13 20.13 0 0 1 43.27 2m0-2a22 22 0 0 0-22 21.77 22.09 22.09 0 1 0 22.76 22.4A22.09 22.09 0 0 0 43.27 0z"/><path class="a" d="M43.27 2a20.09 20.09 0 1 1-20 20.09A20.08 20.08 0 0 1 43.27 2m0-2a22.09 22.09 0 1 0 22 22.09A22.05 22.05 0 0 0 43.27 0z"/><path class="a" d="M46.78 26.34a2.72 2.72 0 0 0-.81-2 8.06 8.06 0 0 0-2.86-1.51A9.16 9.16 0 0 1 39.69 21a3.82 3.82 0 0 1-1.12-2.95 4.06 4.06 0 0 1 1.13-3 4.64 4.64 0 0 1 3.08-1.26v-2.27h1.15v2.27a4.32 4.32 0 0 1 3.05 1.47 5.18 5.18 0 0 1 1.06 3.5v.06h-1.32a4.15 4.15 0 0 0-.94-2.82 3.12 3.12 0 0 0-2.48-1 3.4 3.4 0 0 0-2.53.87 3 3 0 0 0-.86 2.2 2.83 2.83 0 0 0 .76 2.06 7.64 7.64 0 0 0 2.94 1.5 9.6 9.6 0 0 1 3.44 1.81 3.75 3.75 0 0 1 1.12 2.91 4 4 0 0 1-1.17 3 4.94 4.94 0 0 1-3.14 1.28v2.14h-1.15V30.6a5.53 5.53 0 0 1-3.37-1.31 4.34 4.34 0 0 1-1.29-3.54v-.07h1.25a3.39 3.39 0 0 0 1.14 2.87 4.38 4.38 0 0 0 2.75.88 3.79 3.79 0 0 0 2.63-.87 2.84 2.84 0 0 0 .96-2.22zM26.02 48.1a2.72 2.72 0 0 0-.81-2 8.06 8.06 0 0 0-2.86-1.51 9.17 9.17 0 0 1-3.46-1.79 3.83 3.83 0 0 1-1.11-2.98 4.06 4.06 0 0 1 1.13-3 4.65 4.65 0 0 1 3.06-1.3v-2.24h1.15v2.27A4.31 4.31 0 0 1 26.15 37a5.18 5.18 0 0 1 1.06 3.5v.06h-1.29a4.15 4.15 0 0 0-.91-2.78 3.12 3.12 0 0 0-2.51-1.07 3.4 3.4 0 0 0-2.53.87 3 3 0 0 0-.86 2.2 2.82 2.82 0 0 0 .77 2.06 7.63 7.63 0 0 0 2.9 1.53 9.62 9.62 0 0 1 3.44 1.81 3.75 3.75 0 0 1 1.12 2.91 4 4 0 0 1-1.16 3 4.94 4.94 0 0 1-3.14 1.28v2.14h-1.12v-2.15a5.53 5.53 0 0 1-3.37-1.3 4.34 4.34 0 0 1-1.29-3.54v-.07h1.25a3.39 3.39 0 0 0 1.14 2.87 4.38 4.38 0 0 0 2.75.88 3.79 3.79 0 0 0 2.63-.87 2.84 2.84 0 0 0 .99-2.23z"/></symbol></svg>